<svg width="40" height="40" viewBox="0 0 40 40" fill="none" xmlns="http://www.w3.org/2000/svg">
<path d="M22.3499 20L29.5166 12.85C29.8304 12.5361 30.0067 12.1105 30.0067 11.6667C30.0067 11.2228 29.8304 10.7972 29.5166 10.4833C29.2027 10.1695 28.7771 9.99316 28.3332 9.99316C27.8894 9.99316 27.4637 10.1695 27.1499 10.4833L19.9999 17.65L12.8499 10.4833C12.5361 10.1695 12.1104 9.99316 11.6666 9.99316C11.2227 9.99316 10.7971 10.1695 10.4832 10.4833C10.1694 10.7972 9.99308 11.2228 9.99308 11.6667C9.99308 12.1105 10.1694 12.5361 10.4832 12.85L17.6499 20L10.4832 27.15C10.327 27.3049 10.203 27.4893 10.1184 27.6924C10.0338 27.8955 9.99023 28.1133 9.99023 28.3333C9.99023 28.5533 10.0338 28.7712 10.1184 28.9743C10.203 29.1774 10.327 29.3617 10.4832 29.5166C10.6382 29.6729 10.8225 29.7969 11.0256 29.8815C11.2287 29.9661 11.4465 30.0096 11.6666 30.0096C11.8866 30.0096 12.1044 29.9661 12.3075 29.8815C12.5106 29.7969 12.695 29.6729 12.8499 29.5166L19.9999 22.35L27.1499 29.5166C27.3048 29.6729 27.4892 29.7969 27.6923 29.8815C27.8954 29.9661 28.1132 30.0096 28.3332 30.0096C28.5533 30.0096 28.7711 29.9661 28.9742 29.8815C29.1773 29.7969 29.3616 29.6729 29.5166 29.5166C29.6728 29.3617 29.7968 29.1774 29.8814 28.9743C29.966 28.7712 30.0096 28.5533 30.0096 28.3333C30.0096 28.1133 29.966 27.8955 29.8814 27.6924C29.7968 27.4893 29.6728 27.3049 29.5166 27.15L22.3499 20Z" fill="#B59571"/>
</svg>
