<svg width="41" height="41" viewBox="0 0 41 41" fill="none" xmlns="http://www.w3.org/2000/svg">
<g clip-path="url(#clip0_4849_145)">
<path d="M11.3263 18.7813C10.8517 18.7813 10.4473 18.8779 10.2146 18.9487C10.0808 18.9894 9.98861 19.1056 9.96539 19.2435C9.91239 19.5582 10.2376 19.8392 10.5544 19.8005C10.6978 19.783 10.8592 19.7714 11.0353 19.7714C11.4425 19.7714 11.7399 19.8167 11.7399 20.1474C11.7399 20.3158 11.5933 20.4131 11.4252 20.4037C11.3546 20.3997 11.2846 20.3967 11.2343 20.3967C10.2888 20.3967 9.29589 20.799 9.29589 22.0164C9.29589 22.9753 9.94674 23.1942 10.3511 23.1942C10.8381 23.1942 11.1503 22.9948 11.3186 22.8475C11.4045 22.7723 11.4633 22.7966 11.4534 22.9104C11.4441 23.0181 11.529 23.1106 11.637 23.1106H11.9721C12.2168 23.1106 12.4242 22.9306 12.4588 22.6884L12.7952 20.329C12.8169 20.177 12.8328 20.0229 12.8145 19.8704C12.6876 18.8173 11.6883 18.7813 11.3263 18.7813ZM10.7867 22.2777C10.4474 22.2777 10.3589 22.0192 10.3589 21.8648C10.3589 21.566 10.5211 21.2062 11.3221 21.2062C11.4648 21.2067 11.5674 21.3302 11.5412 21.4705C11.4816 21.7905 11.2819 22.2777 10.7867 22.2777ZM14.201 20.1467C14.201 20.6927 15.5034 20.4243 15.5034 21.7827C15.5034 23.2352 14.0962 23.1715 13.8504 23.1715C13.753 23.1715 13.6628 23.1701 13.5792 23.1675C13.0282 23.1507 12.6866 22.6265 12.7697 22.0816C12.7711 22.0745 13.23 22.2487 13.7406 22.2487C14.0353 22.2487 14.4177 22.2197 14.4177 21.8684C14.4177 21.3401 13.0494 21.4675 13.0494 20.2154C13.0494 19.1113 13.8695 18.7884 14.6783 18.7884C14.8825 18.7884 15.0609 18.7975 15.2086 18.8098C15.4803 18.8325 15.657 19.0823 15.6184 19.3521C15.5792 19.6254 15.334 19.82 15.0585 19.8021C14.9502 19.795 14.8526 19.7898 14.8023 19.7898C14.4127 19.7905 14.201 19.8755 14.201 20.1467ZM16.7952 21.8096C16.7711 21.959 16.8129 22.1623 17.1932 22.1623C17.3429 22.1623 17.4555 22.2626 17.4337 22.4108L17.3876 22.7245C17.3577 22.9278 17.213 23.1034 17.0121 23.1466C16.8751 23.1761 16.7068 23.2013 16.519 23.2027C16.0098 23.2076 15.6479 22.9215 15.6479 22.2763C15.6479 21.9143 16.0811 19.3633 16.238 18.5187C16.2705 18.3436 16.3927 18.248 16.5709 18.248H17.0623C17.2312 18.248 17.3593 18.4003 17.3302 18.5667L17.3224 18.6116C17.2975 18.7545 17.4075 18.8854 17.5525 18.8854C17.694 18.8854 17.803 19.0102 17.784 19.1504L17.7198 19.6233C17.6973 19.7897 17.5553 19.9137 17.3874 19.9137C17.2228 19.9137 17.0825 20.0331 17.0562 20.1956L16.7952 21.8096ZM-nan -nanL21.0119 21.3585C21.0119 21.3585 21.1557 20.6503 21.1557 20.362C21.1557 19.6418 20.7973 18.7636 19.5976 18.7636C18.4984 18.7643 17.6847 19.9484 17.6847 21.2869C17.6847 22.8316 18.7038 23.1984 19.5728 23.1984C20.0244 23.1984 20.3336 23.1413 20.5174 23.0915C20.6527 23.0548 20.742 22.9376 20.7672 22.7998C20.8321 22.4447 20.4633 22.1452 20.1071 22.2033C19.9926 22.222 19.8745 22.2338 19.7591 22.2338C19.5311 22.2338 19.3552 22.2008 19.2197 22.1476C18.6843 21.9373 19.1976 21.3585 19.7729 21.3585H21.0119L-nan -nanZM19.6011 19.743C19.7965 19.743 19.9186 19.8126 19.9942 19.9094C20.2003 20.1735 19.8324 20.4916 19.4974 20.4916C19.1624 20.4916 18.9014 20.1899 19.1296 19.9446C19.2364 19.8299 19.3879 19.743 19.6011 19.743ZM8.61176 17.9102C9.17511 17.9102 9.60382 18.4157 9.5118 18.9715L8.9024 22.6519C8.85811 22.9194 8.6268 23.1155 8.35567 23.1155H8.09859C7.89285 23.1155 7.73582 22.9317 7.76806 22.7285C7.83174 22.327 7.2594 22.1806 7.12244 22.5633L7.0115 22.8733C6.95949 23.0186 6.82178 23.1155 6.66744 23.1155H6.51024C6.32206 23.1155 6.16821 22.9655 6.16353 22.7774C6.15307 22.3576 5.54502 22.3141 5.47487 22.7281L5.45942 22.8192C5.43042 22.9903 5.2822 23.1155 5.10866 23.1155H4.96963C4.64785 23.1155 4.40321 22.8264 4.45649 22.5091L5.10643 18.6379C5.17695 18.2178 5.54058 17.9102 5.96652 17.9102H6.35914C6.61691 17.9102 6.82713 18.1167 6.83164 18.3745C6.84093 18.9048 7.58243 19.0198 7.75193 18.5172L7.83756 18.2633C7.90873 18.0523 8.10661 17.9102 8.32931 17.9102H8.61176ZM23.222 16.4611C23.3795 16.8293 23.0985 17.2246 22.698 17.2246H18.7411C18.3311 17.2246 17.9896 16.9106 18.1746 16.5446C18.2657 16.3643 18.5179 16.1248 18.7199 16.1248H22.7002C22.9264 16.1248 23.1329 16.2532 23.222 16.4611ZM21.8576 14.1647C22.1473 14.5333 21.8692 15.0461 21.4004 15.0461H20.0286C19.577 15.0461 19.3003 14.5544 19.5599 14.1849C19.6656 14.0346 19.8398 13.947 20.0236 13.947H21.4019C21.5792 13.947 21.748 14.0253 21.8576 14.1647ZM20.6698 28.1085C20.6661 28.1116 20.6607 28.1117 20.6572 28.1085C20.5412 28.0035 20.4286 27.8951 20.3189 27.7838C20.021 27.4818 20.25 26.9923 20.6742 26.9923C21.0982 26.9923 21.3228 27.4777 21.0221 27.7766C20.9142 27.8837 20.804 27.9886 20.6915 28.0911C20.6912 28.0913 20.6909 28.0915 20.6905 28.0915H20.6892C20.6891 28.0915 20.689 28.0918 20.6891 28.0919C20.6892 28.0921 20.6892 28.0925 20.689 28.0927C20.6828 28.0979 20.6762 28.1031 20.6698 28.1085ZM22.6602 25.6559C22.5582 25.8312 22.3689 25.9342 22.1661 25.9342H19.1774C18.9735 25.9342 18.7834 25.8305 18.6795 25.655C18.459 25.2827 18.7391 24.8351 19.1718 24.8351H22.1638C22.595 24.8351 22.8771 25.2833 22.6602 25.6559ZM23.5799 18.8337C23.6872 18.8326 23.7442 18.9398 23.6999 19.0375C23.6414 19.1664 23.5851 19.308 23.5294 19.4963C23.4347 19.8164 23.0235 20.0431 22.8494 20.3279C22.5996 20.7367 22.4945 21.6161 22.3259 22.6625C22.2828 22.9295 22.0512 23.124 21.7807 23.124C21.4376 23.124 21.1761 22.817 21.2306 22.4783L21.7406 19.3102C21.7798 19.0666 21.99 18.8875 22.2368 18.8875H22.7225C22.777 18.8875 22.8185 18.9362 22.8099 18.99C22.7941 19.0883 22.9714 19.1617 23.0431 19.0926C23.1872 18.9541 23.3721 18.8337 23.5799 18.8337ZM25.8143 22.1347C25.8285 22.1347 25.8429 22.1343 25.8576 22.1335C26.2345 22.1138 26.6325 22.3878 26.5715 22.7602C26.5417 22.9416 26.4075 23.0887 26.2273 23.1248C26.0276 23.1648 25.7651 23.2083 25.5664 23.2083C24.2619 23.2083 23.5997 22.3082 23.5997 20.9449C23.5997 18.8889 24.827 17.794 26.0884 17.794C26.3876 17.794 26.7123 17.868 26.953 17.9381C27.1706 18.0015 27.2949 18.22 27.2603 18.444C27.2052 18.8016 26.7723 18.9952 26.416 18.9323C26.3278 18.9168 26.2345 18.9073 26.138 18.9073C25.3943 18.9073 24.7272 19.617 24.7272 20.9073C24.7272 21.5426 25.0381 22.1347 25.8143 22.1347ZM36.4843 22.5129C36.4312 22.5412 36.3901 22.5823 36.3603 22.6361C36.3306 22.6892 36.3157 22.7444 36.3157 22.8018C36.3157 22.8592 36.3306 22.9137 36.3603 22.9661C36.3894 23.0185 36.4304 23.0603 36.4829 23.0901C36.536 23.1191 36.5905 23.134 36.6472 23.134C36.7052 23.134 36.7605 23.1191 36.8122 23.0901C36.8646 23.0603 36.9057 23.0185 36.9347 22.9661C36.9651 22.9137 36.9786 22.8592 36.9786 22.8018C36.9786 22.7437 36.9644 22.6885 36.9347 22.6361C36.9057 22.5823 36.8632 22.5412 36.8101 22.5129C36.7576 22.4838 36.7038 22.4697 36.6472 22.4697C36.5926 22.4697 36.5381 22.4838 36.4843 22.5129ZM36.8872 22.6623C36.912 22.7069 36.9255 22.7529 36.9255 22.8004C36.9255 22.8478 36.9135 22.8946 36.8887 22.9378C36.8646 22.9817 36.8306 23.015 36.786 23.0412C36.7421 23.0653 36.6967 23.078 36.6493 23.078C36.6011 23.078 36.5551 23.0653 36.5119 23.0412C36.4673 23.0164 36.434 22.9824 36.4085 22.9378C36.383 22.8932 36.3717 22.8478 36.3717 22.8004C36.3717 22.7529 36.3837 22.7069 36.4099 22.6623C36.4347 22.6184 36.468 22.5844 36.5133 22.5596C36.5586 22.5348 36.6033 22.5242 36.6493 22.5242C36.6953 22.5242 36.7406 22.5362 36.7838 22.5596C36.8292 22.5844 36.8625 22.6177 36.8872 22.6623ZM32.4496 21.4045C32.4496 22.3004 32.895 23.1779 33.8044 23.1779C34.16 23.1779 34.4294 23.0433 34.6014 22.9202C34.6705 22.8708 34.7963 22.9328 34.7861 23.017C34.78 23.0671 34.8191 23.1113 34.8696 23.1113H35.3805C35.6439 23.1113 35.8684 22.92 35.9103 22.6599L36.5723 18.542C36.6253 18.2127 36.3706 17.9143 36.037 17.9149L35.9628 17.9151C35.7404 17.9155 35.551 18.0771 35.5156 18.2967C35.4513 18.6958 34.8307 18.8722 34.4299 18.8191C34.3833 18.8129 34.3353 18.8096 34.286 18.8096C33.2838 18.8103 32.4496 20.0178 32.4496 21.4045ZM35.0686 20.7678C35.0686 21.345 34.7831 22.1163 34.1911 22.1163C33.7973 22.1163 33.6132 21.7862 33.6132 21.2678C33.6132 20.4201 33.9935 19.8613 34.4744 19.8613C34.8667 19.862 35.0686 20.1318 35.0686 20.7678ZM36.8469 26.2416C36.8417 26.2369 36.845 26.2183 36.8515 26.2159C36.8667 26.2104 36.88 26.2018 36.8908 26.1906C36.9085 26.1715 36.9184 26.1488 36.9184 26.1226C36.9184 26.1042 36.9127 26.0865 36.9021 26.0702C36.8915 26.0539 36.8759 26.0419 36.8568 26.0355C36.8391 26.0284 36.8086 26.0249 36.7668 26.0249C36.6988 26.0249 36.6436 26.0801 36.6436 26.1481V26.3535C36.6436 26.3695 36.6566 26.3825 36.6727 26.3825C36.6887 26.3825 36.7017 26.3695 36.7017 26.3535V26.2636C36.7017 26.2452 36.7166 26.2303 36.735 26.2303C36.7548 26.2303 36.7711 26.2345 36.7803 26.243C36.7952 26.2551 36.8164 26.2827 36.8412 26.3259L36.8639 26.3671C36.8691 26.3766 36.8791 26.3825 36.89 26.3825C36.9135 26.3825 36.9277 26.3567 36.9153 26.3369L36.9 26.3124C36.8787 26.2799 36.861 26.2565 36.8469 26.2416ZM36.7711 26.1821H36.7541C36.7244 26.1821 36.7003 26.158 36.7003 26.1283C36.7003 26.0986 36.7244 26.0745 36.7541 26.0745H36.7668C36.7945 26.0745 36.8129 26.0766 36.8235 26.0808C36.8348 26.0851 36.8419 26.0915 36.8483 26.0993C36.854 26.1078 36.8568 26.117 36.8568 26.1269C36.8568 26.1432 36.8511 26.1573 36.8391 26.1672C36.827 26.1772 36.8037 26.1821 36.7711 26.1821ZM39.6372 7.53906H1.69674C1.12733 7.53906 0.666992 8.00011 0.666992 8.56881V32.4321C0.666992 33.0008 1.12733 33.4619 1.69674 33.4619H39.6372C40.2067 33.4619 40.667 33.0008 40.667 32.4321V8.56881C40.667 8.00011 40.2067 7.53906 39.6372 7.53906ZM37.0756 26.3634C37.0459 26.4173 37.0055 26.4583 36.9531 26.4874C36.9007 26.5164 36.8455 26.5313 36.7888 26.5313C36.7307 26.5313 36.6755 26.5164 36.6231 26.4874C36.5714 26.4583 36.5303 26.4173 36.4999 26.3634C36.4708 26.3117 36.4559 26.2565 36.4559 26.1991C36.4559 26.1418 36.4708 26.0872 36.5006 26.0334C36.5296 25.9796 36.5721 25.9392 36.6245 25.9102C36.6776 25.8825 36.7314 25.8677 36.7881 25.8677C36.844 25.8677 36.8979 25.8825 36.9503 25.9102C37.0034 25.9392 37.0452 25.9796 37.0742 26.0334C37.104 26.0872 37.1181 26.1425 37.1181 26.1991C37.1181 26.2558 37.1054 26.3124 37.0756 26.3634ZM37.8178 20.5008C37.8193 26.1701 33.2258 30.7678 27.5558 30.7692C23.2733 30.7704 18.0656 30.7664 13.7831 30.7664C8.11671 30.7664 3.51756 26.168 3.51756 20.5008C3.51756 14.8563 8.08059 10.2714 13.7173 10.2345C13.7392 10.2345 13.7612 10.2345 13.7831 10.2345C18.0665 10.2345 23.2675 10.2335 27.5508 10.2324C33.219 10.2303 37.8149 14.823 37.8193 20.4905C37.8193 20.4939 37.8178 20.4974 37.8178 20.5008ZM36.6273 22.6276C36.5585 22.6276 36.5027 22.6834 36.5027 22.7522V22.9555C36.5027 22.9715 36.5157 22.9845 36.5317 22.9845C36.5478 22.9845 36.5608 22.9715 36.5608 22.9555V22.8663C36.5608 22.8479 36.5757 22.833 36.594 22.833C36.6146 22.833 36.6309 22.8372 36.6408 22.845C36.6557 22.8578 36.6755 22.8847 36.7017 22.9293L36.7237 22.9697C36.7289 22.9793 36.7389 22.9852 36.7499 22.9852C36.7733 22.9852 36.7875 22.9595 36.7751 22.9396L36.7598 22.9151C36.7392 22.8818 36.7208 22.8585 36.7074 22.8443C36.7016 22.839 36.7046 22.8213 36.7119 22.8186C36.7269 22.813 36.7398 22.8045 36.7506 22.7933C36.7683 22.7749 36.7789 22.7508 36.7789 22.7253C36.7789 22.7076 36.7732 22.6892 36.7619 22.6729C36.7506 22.6573 36.7357 22.6453 36.718 22.6382C36.7003 22.6311 36.6691 22.6276 36.6273 22.6276ZM36.7088 22.7005C36.7151 22.7097 36.718 22.7175 36.718 22.7296C36.718 22.7452 36.7116 22.7586 36.701 22.7685C36.6875 22.7791 36.6656 22.7834 36.6323 22.7834H36.616C36.5863 22.7834 36.5622 22.7593 36.5622 22.7296C36.5622 22.6998 36.5863 22.6757 36.616 22.6757H36.6273C36.638 22.6757 36.6473 22.6761 36.6553 22.6766C36.6756 22.678 36.6981 22.6832 36.7088 22.7005ZM29.0445 18.7813C28.5689 18.7813 28.1644 18.8779 27.9317 18.9487C27.7981 18.9894 27.706 19.1055 27.6827 19.2432C27.6294 19.558 27.9546 19.8392 28.2715 19.8005C28.4148 19.783 28.5761 19.7714 28.752 19.7714C29.1592 19.7714 29.4574 19.8167 29.4574 20.1474C29.4574 20.3164 29.3097 20.4131 29.1409 20.4037C29.0703 20.3997 29.0003 20.3967 28.9496 20.3967C28.0048 20.3967 27.0126 20.799 27.0126 22.0164C27.0126 22.9753 27.6642 23.1942 28.0678 23.1942C28.5549 23.1942 28.8671 22.9944 29.0353 22.847C29.1212 22.7718 29.18 22.7963 29.1702 22.9101C29.1608 23.0179 29.2459 23.1106 29.3541 23.1106H29.6884C29.9329 23.1106 30.1402 22.9308 30.1747 22.6887L30.5438 20.1007C30.5459 18.8223 29.4312 18.7813 29.0445 18.7813ZM28.5062 22.2777C28.1663 22.2777 28.0785 22.0192 28.0785 21.8648C28.0785 21.566 28.2406 21.2062 29.0416 21.2062C29.1841 21.2067 29.2866 21.3304 29.2603 21.4704C29.2003 21.7905 29.0004 22.2777 28.5062 22.2777ZM32.7063 19.4969C32.6112 19.8164 32.2005 20.042 32.0265 20.3263C31.7766 20.7347 31.6718 21.6146 31.5025 22.662C31.4593 22.929 31.2276 23.1233 30.9572 23.1233C30.614 23.1233 30.3524 22.8162 30.4069 22.4774L30.9168 19.3101C30.9561 19.0661 31.1666 18.8868 31.4137 18.8868H31.8992C31.9539 18.8868 31.9956 18.9357 31.987 18.9897C31.9713 19.0884 32.1488 19.1617 32.2208 19.0924C32.365 18.9537 32.5503 18.833 32.7584 18.833C32.8653 18.833 32.922 18.9402 32.8777 19.0375C32.819 19.1664 32.7624 19.3082 32.7063 19.4969Z" fill="white"/>
</g>
<defs>
<clipPath id="clip0_4849_145">
<rect width="40" height="40" fill="white" transform="translate(0.666992 0.5)"/>
</clipPath>
</defs>
</svg>
