<svg width="41" height="27" viewBox="0 0 41 27" fill="none" xmlns="http://www.w3.org/2000/svg">
<g clip-path="url(#clip0_4849_15)">
<path d="M2.71779 0.679443H38.6152C39.7486 0.679443 40.6665 1.59739 40.6665 2.73073V24.2692C40.6665 25.4025 39.7486 26.3205 38.6152 26.3205H2.71779C1.58445 26.3205 0.666504 25.4025 0.666504 24.2692V2.73073C0.666504 1.59739 1.58445 0.679443 2.71779 0.679443Z" fill="white"/>
<path d="M28.5688 13.0129V18.5514H31.6458V15.2693H35.133C36.5996 15.2591 37.8458 14.3206 38.3176 13.0129H28.5688Z" fill="#333333"/>
<path d="M28.1587 8.44873C28.3382 10.7103 30.4818 12.5 33.0972 12.5C33.1074 12.5 38.4459 12.5 38.4459 12.5C38.4869 12.2949 38.5074 12.0795 38.5074 11.859C38.5074 9.98206 36.9946 8.46412 35.1228 8.44873H28.1587Z" fill="#333333"/>
<path d="M23.6049 12.4436V12.4385V12.4436C23.6408 12.3821 23.6972 12.3462 23.769 12.3462C23.8715 12.3462 23.9485 12.4282 23.9536 12.5257V18.5H27.0305V8.44873H23.9536C23.5638 8.46412 23.1228 8.74617 22.9587 9.10001L20.5126 14.3513C20.5074 14.3718 20.4972 14.3923 20.4869 14.4128C20.451 14.4641 20.3895 14.5 20.3177 14.5C20.2049 14.5 20.1126 14.4077 20.1126 14.2949V8.44873H17.0356V18.5H20.1126C20.4972 18.4795 20.928 18.1974 21.0921 17.8487L23.6049 12.459C23.5997 12.4539 23.6049 12.4487 23.6049 12.4436Z" fill="#333333"/>
<path d="M12.1177 12.618L10.3177 18.5H8.10236L6.30749 12.6128C6.29211 12.5205 6.21005 12.4487 6.10749 12.4487C5.99467 12.4487 5.90749 12.541 5.90749 12.6487V18.4949H2.83057V8.4436H5.47159H6.25621C6.82031 8.4436 7.41518 8.88463 7.57928 9.42309L9.07672 14.3205C9.15364 14.5667 9.27159 14.5616 9.34852 14.3205L10.846 9.42309C11.0101 8.8795 11.6049 8.4436 12.169 8.4436H12.9536H15.5947V18.4949H12.5177V12.6487C12.5177 12.6487 12.5177 12.6487 12.5177 12.6436C12.5177 12.5308 12.4254 12.4436 12.3177 12.4436C12.2152 12.4487 12.1331 12.5205 12.1177 12.618Z" fill="#333333"/>
</g>
<defs>
<clipPath id="clip0_4849_15">
<rect width="40" height="25.641" fill="white" transform="translate(0.666504 0.679443)"/>
</clipPath>
</defs>
</svg>
